<svg xmlns="http://www.w3.org/2000/svg" width="68.718" height="76.961" viewBox="0 0 68.718 76.961">
  <g id="Сгруппировать_162" data-name="Сгруппировать 162" transform="translate(-185.258 -2243.022)">
    <path id="Контур_1438" data-name="Контур 1438" d="M252.268,2253.865c-20.145,2.372-32.651-9.207-32.651-9.207s-12.506,11.579-32.652,9.207c0,0-6.285,53.359,32.652,64.867C258.555,2307.224,252.268,2253.865,252.268,2253.865Z" fill="none" stroke="#e29730" stroke-miterlimit="10" stroke-width="2.4"/>
    <line id="Линия_29" data-name="Линия 29" y1="12.964" transform="translate(219.617 2305.769)" fill="none" stroke="#e29730" stroke-miterlimit="10" stroke-width="2.4"/>
    <g id="Сгруппировать_161" data-name="Сгруппировать 161">
      <path id="Контур_1439" data-name="Контур 1439" d="M237.277,2271.8l-17.66-9.793-17.662,9.793" fill="none" stroke="#fff" stroke-miterlimit="10" stroke-width="2.4"/>
      <g id="Сгруппировать_159" data-name="Сгруппировать 159">
        <path id="Контур_1440" data-name="Контур 1440" d="M205.459,2269.856v19.45h28.314v-19.45" fill="none" stroke="#fff" stroke-miterlimit="10" stroke-width="2.4"/>
        <path id="Контур_1441" data-name="Контур 1441" d="M209.136,2289.307v-12.063a4.322,4.322,0,0,1,4.322-4.321h0a4.321,4.321,0,0,1,4.321,4.321v12.063" fill="none" stroke="#fff" stroke-miterlimit="10" stroke-width="2.4"/>
      </g>
      <g id="Сгруппировать_160" data-name="Сгруппировать 160">
        <path id="Контур_1442" data-name="Контур 1442" d="M230.1,2289.307v-12.063a4.321,4.321,0,0,0-4.321-4.321h0a4.321,4.321,0,0,0-4.32,4.321v12.063" fill="none" stroke="#fff" stroke-miterlimit="10" stroke-width="2.4"/>
      </g>
      <path id="Прямоугольник_117" data-name="Прямоугольник 117" d="M2.764,0H32.558a2.764,2.764,0,0,1,2.764,2.764v.563a0,0,0,0,1,0,0H0a0,0,0,0,1,0,0V2.764A2.764,2.764,0,0,1,2.764,0Z" transform="translate(201.955 2292.653)" fill="none" stroke="#fff" stroke-miterlimit="10" stroke-width="2.4"/>
    </g>
  </g>
</svg>
