<svg xmlns="http://www.w3.org/2000/svg" width="31.76" height="31.762" viewBox="0 0 31.76 31.762">
  <g id="Сгруппировать_104" data-name="Сгруппировать 104" transform="translate(-1563.638 -3237.704)">
    <g id="Сгруппировать_102" data-name="Сгруппировать 102">
      <path id="Контур_529" data-name="Контур 529" d="M1571.338,3249.843l3.8,1.844,3.8,1.845v1.18l-3.8,1.867-3.8,1.867-.229-.523-.228-.524,3.46-1.638,3.462-1.639-3.462-1.6-3.46-1.608.228-.535Z" fill="#0088d5"/>
      <path id="Контур_530" data-name="Контур 530" d="M1582.193,3249.843l3.8,1.844,3.8,1.845v1.18l-3.8,1.867-3.8,1.867-.228-.523-.232-.524,3.461-1.638,3.465-1.639-3.465-1.6-3.461-1.608.232-.535Z" fill="#0088d5"/>
    </g>
    <g id="Сгруппировать_103" data-name="Сгруппировать 103">
      <path id="Контур_531" data-name="Контур 531" d="M1579.519,3269.466a15.9,15.9,0,1,1,11.22-4.656A15.839,15.839,0,0,1,1579.519,3269.466Zm0-30.2a14.331,14.331,0,1,0,10.122,4.2A14.283,14.283,0,0,0,1579.519,3239.265Z" fill="#0088d5"/>
    </g>
  </g>
</svg>
