<svg xmlns="http://www.w3.org/2000/svg" width="17.192" height="17.191" viewBox="0 0 17.192 17.191">
  <g id="instagram" transform="translate(-1211.013 -4876.382)">
    <path id="Контур_1363" data-name="Контур 1363" d="M1219.609,4877.931c2.3,0,2.567.009,3.473.05a4.8,4.8,0,0,1,1.6.3,2.845,2.845,0,0,1,1.629,1.631,4.723,4.723,0,0,1,.295,1.6c.043.906.051,1.178.051,3.473s-.008,2.566-.051,3.474a4.723,4.723,0,0,1-.295,1.6,2.669,2.669,0,0,1-.642.988,2.7,2.7,0,0,1-.987.643,4.784,4.784,0,0,1-1.6.295c-.905.043-1.178.05-3.473.05s-2.566-.007-3.472-.05a4.76,4.76,0,0,1-1.6-.295,2.859,2.859,0,0,1-1.633-1.631,4.818,4.818,0,0,1-.3-1.6c-.04-.908-.051-1.18-.051-3.474s.011-2.567.051-3.473a4.818,4.818,0,0,1,.3-1.6,2.859,2.859,0,0,1,1.633-1.631,4.772,4.772,0,0,1,1.6-.3c.906-.041,1.177-.05,3.472-.05m0-1.549c-2.334,0-2.627.01-3.543.053a6.34,6.34,0,0,0-2.088.4,4.412,4.412,0,0,0-2.514,2.514,6.364,6.364,0,0,0-.4,2.088c-.043.916-.053,1.209-.053,3.543s.01,2.626.053,3.544a6.351,6.351,0,0,0,.4,2.086,4.4,4.4,0,0,0,2.514,2.514,6.334,6.334,0,0,0,2.088.4c.916.042,1.209.051,3.543.051s2.627-.009,3.545-.051a6.332,6.332,0,0,0,2.086-.4,4.4,4.4,0,0,0,2.514-2.514,6.345,6.345,0,0,0,.4-2.086c.04-.918.051-1.21.051-3.544s-.011-2.627-.051-3.543a6.358,6.358,0,0,0-.4-2.088,4.412,4.412,0,0,0-2.514-2.514,6.338,6.338,0,0,0-2.086-.4c-.918-.043-1.212-.053-3.545-.053Z" fill="#fff"/>
    <path id="Контур_1364" data-name="Контур 1364" d="M1219.609,4880.564a4.414,4.414,0,1,0,4.414,4.414A4.415,4.415,0,0,0,1219.609,4880.564Zm0,7.279a2.865,2.865,0,1,1,2.866-2.865A2.864,2.864,0,0,1,1219.609,4887.843Z" fill="#fff"/>
    <path id="Контур_1365" data-name="Контур 1365" d="M1225.229,4880.39a1.031,1.031,0,1,1-1.033-1.032A1.031,1.031,0,0,1,1225.229,4880.39Z" fill="#fff"/>
  </g>
</svg>
