<svg xmlns="http://www.w3.org/2000/svg" width="11" height="18.991" viewBox="0 0 11 18.991">
  <g id="ok" transform="translate(-1147.479 -4875.653)">
    <path id="Контур_1366" data-name="Контур 1366" d="M1152.979,4885.454a4.9,4.9,0,1,0-4.9-4.9A4.9,4.9,0,0,0,1152.979,4885.454Zm0-6.928a2.029,2.029,0,1,1-2.028,2.028A2.031,2.031,0,0,1,1152.979,4878.526Z" fill="#fff"/>
    <path id="Контур_1367" data-name="Контур 1367" d="M1154.963,4889.452a9.154,9.154,0,0,0,2.846-1.178,1.437,1.437,0,0,0-1.531-2.431,6.224,6.224,0,0,1-6.6,0,1.437,1.437,0,0,0-1.531,2.431,9.186,9.186,0,0,0,2.847,1.178l-2.741,2.74a1.436,1.436,0,1,0,2.032,2.03l2.69-2.692,2.694,2.692a1.436,1.436,0,0,0,2.032-2.03Z" fill="#fff"/>
  </g>
</svg>
