<svg xmlns="http://www.w3.org/2000/svg" width="173.895" height="173.896" viewBox="0 0 173.895 173.896">
  <g id="Сгруппировать_77" data-name="Сгруппировать 77" transform="translate(-2833.292 -6407.627)" opacity="0.3">
    <path id="Контур_433" data-name="Контур 433" d="M2999.872,6431.291c2.1,0,4.191.068,6.276.158l1.039-23.638c-2.427-.1-4.862-.184-7.315-.184s-4.881.078-7.311.184l1.039,23.638C2995.68,6431.359,2997.77,6431.291,2999.872,6431.291Z" fill="#9f8058"/>
    <path id="Контур_434" data-name="Контур 434" d="M2981.266,6432.535l-3.083-23.457q-7.308.952-14.414,2.516l5.131,23.1Q2974.984,6433.35,2981.266,6432.535Z" fill="#9f8058"/>
    <path id="Контур_435" data-name="Контур 435" d="M2956.929,6437.867l-7.11-22.576q-7.019,2.21-13.747,5.016l9.062,21.865Q2950.912,6439.772,2956.929,6437.867Z" fill="#9f8058"/>
    <path id="Контур_436" data-name="Контур 436" d="M2933.919,6447.428,2923,6426.438q-6.5,3.388-12.66,7.326l12.721,19.953Q2928.342,6450.342,2933.919,6447.428Z" fill="#9f8058"/>
    <path id="Контур_437" data-name="Контур 437" d="M2912.92,6460.82l-14.4-18.775q-5.81,4.46-11.22,9.393l16,17.441Q2907.924,6464.634,2912.92,6460.82Z" fill="#9f8058"/>
    <path id="Контур_438" data-name="Контур 438" d="M2894.542,6477.635l-17.442-15.992c-3.293,3.589-6.418,7.343-9.387,11.214l18.769,14.4C2889.035,6483.934,2891.713,6480.715,2894.542,6477.635Z" fill="#9f8058"/>
    <path id="Контур_439" data-name="Контур 439" d="M2879.381,6497.4l-19.95-12.718q-3.93,6.151-7.329,12.656l20.992,10.922Q2876.007,6502.677,2879.381,6497.4Z" fill="#9f8058"/>
    <path id="Контур_440" data-name="Контур 440" d="M2867.837,6519.471l-21.864-9.065c-1.862,4.489-3.546,9.071-5.017,13.746l22.581,7.112C2864.794,6527.252,2866.239,6523.322,2867.837,6519.471Z" fill="#9f8058"/>
    <path id="Контур_441" data-name="Контур 441" d="M2860.36,6543.236l-23.1-5.129q-1.572,7.1-2.515,14.411l23.457,3.08Q2859.016,6549.331,2860.36,6543.236Z" fill="#9f8058"/>
    <path id="Контур_442" data-name="Контур 442" d="M2856.958,6574.207c0-2.1.07-4.191.157-6.273l-23.639-1.041c-.1,2.427-.184,4.861-.184,7.314s.079,4.889.184,7.316l23.639-1.041C2857.028,6578.4,2856.958,6576.315,2856.958,6574.207Z" fill="#9f8058"/>
  </g>
</svg>
