<svg xmlns="http://www.w3.org/2000/svg" width="19.168" height="15.58" viewBox="0 0 19.168 15.58">
  <path id="twitter" d="M1196.413,4878.96a7.838,7.838,0,0,1-2.259.619,3.95,3.95,0,0,0,1.731-2.176,7.848,7.848,0,0,1-2.5.955,3.936,3.936,0,0,0-6.7,3.586,11.154,11.154,0,0,1-8.1-4.107,3.93,3.93,0,0,0,1.215,5.25,3.936,3.936,0,0,1-1.781-.492v.051a3.936,3.936,0,0,0,3.155,3.855,3.94,3.94,0,0,1-1.035.139,3.841,3.841,0,0,1-.74-.073,3.935,3.935,0,0,0,3.673,2.733,7.893,7.893,0,0,1-4.885,1.683,8.294,8.294,0,0,1-.936-.054,11.185,11.185,0,0,0,17.218-9.424c0-.17,0-.34-.012-.508A7.986,7.986,0,0,0,1196.413,4878.96Z" transform="translate(-1177.245 -4877.116)" fill="#fff"/>
</svg>
