<svg xmlns="http://www.w3.org/2000/svg" width="22.111" height="12.612" viewBox="0 0 22.111 12.612">
  <path id="vk_alt" d="M1119.513,4891.628h1.323a1.117,1.117,0,0,0,.6-.262.967.967,0,0,0,.182-.58s-.028-1.775.8-2.037,1.853,1.715,2.957,2.473a2.085,2.085,0,0,0,1.469.447l2.952-.041s1.546-.094.813-1.309a9.936,9.936,0,0,0-2.2-2.541c-1.852-1.716-1.6-1.439.628-4.412,1.357-1.81,1.9-2.914,1.73-3.388-.162-.452-1.161-.332-1.161-.332l-3.322.021a.762.762,0,0,0-.431.076.9.9,0,0,0-.293.356,19.226,19.226,0,0,1-1.228,2.591c-1.481,2.514-2.073,2.647-2.315,2.491-.562-.364-.421-1.461-.421-2.241,0-2.437.369-3.453-.72-3.714a5.68,5.68,0,0,0-1.551-.155,7.212,7.212,0,0,0-2.759.282c-.379.185-.67.6-.491.623a1.48,1.48,0,0,1,.98.492,3.2,3.2,0,0,1,.328,1.5s.2,2.869-.458,3.224c-.447.244-1.062-.254-2.383-2.535a21.246,21.246,0,0,1-1.185-2.459,1.011,1.011,0,0,0-.273-.371,1.392,1.392,0,0,0-.513-.207l-3.157.022s-.476.013-.649.22c-.157.182-.013.563-.013.563s2.473,5.785,5.273,8.7a7.583,7.583,0,0,0,5.484,2.5Z" transform="translate(-1108.696 -4879.068)" fill="#fff" fill-rule="evenodd"/>
</svg>
